<?xml version="1.0" encoding="UTF-8"?><svg id="_レイヤー_1" xmlns="http://www.w3.org/2000/svg" viewBox="0 0 177.36 155.35"><defs><style>.cls-1{fill:#7caa4a;}</style></defs><rect class="cls-1" x="37.33" y="120.83" width="8.63" height="8.63" rx=".62" ry=".62"/><rect class="cls-1" x="132.26" y="120.83" width="8.63" height="8.63" rx=".62" ry=".62"/><rect class="cls-1" y="69.58" width="7.55" height="7.55" rx=".62" ry=".62"/><rect class="cls-1" x="7.55" y="86.3" width="7.55" height="7.55" rx=".62" ry=".62"/><path class="cls-1" d="M169.8,62.65v6.32c0,.34-.27.62-.62.62h-10.41c-.34,0-.62.27-.62.62v8.55h3.48c.34,0,.62.27.62.62v6.31c0,.34-.28.62-.62.62h-11.49c-.34,0-.62.28-.62.62v7.39c0,.34-.28.62-.62.62h-7.39c-.34,0-.62.28-.62.62v7.39c0,.34-.28.62-.62.62h-16.02c-.34,0-.62.28-.62.62v7.39c0,.34.28.62.62.62h7.39c.34,0,.62.28.62.62v7.39c0,.34-.28.62-.62.62h-7.39c-.34,0-.62.28-.62.62v7.39c0,.35-.28.62-.62.62h-7.39c-.34,0-.62.28-.62.62v16.02c0,.35-.28.62-.62.62h-7.39c-.34,0-.62-.27-.62-.62v-7.39c0-.34-.28-.62-.62-.62h-33.28c-.35,0-.62.28-.62.62v7.39c0,.35-.28.62-.62.62h-7.4c-.34,0-.61-.27-.61-.62v-16.02c0-.34-.28-.62-.62-.62h-7.4c-.34,0-.62-.27-.62-.62v-7.39c0-.34-.27-.62-.61-.62h-7.4c-.34,0-.62-.28-.62-.62v-7.39c0-.34.28-.62.62-.62h7.4c.34,0,.61-.28.61-.62v-7.39c0-.34-.27-.62-.61-.62h-16.03c-.34,0-.62-.28-.62-.62v-7.39c0-.34-.27-.62-.62-.62h-7.39c-.34,0-.62-.28-.62-.62v-7.39c0-.34-.27-.62-.62-.62h-12.35c-.34,0-.62-.28-.62-.62v-6.31c0-.35.28-.62.62-.62h4.34v-8.55c0-.35-.27-.62-.62-.62h-11.27c-.34,0-.62-.28-.62-.62v-6.32c0-.34.28-.61.62-.61h11.27c.35,0,.62-.28.62-.62v-26.27c0-.35.28-.62.62-.62h7.39c.35,0,.62-.28.62-.62v-7.39c0-.35.28-.62.62-.62h7.39c.35,0,.62-.28.62-.62V9.25c0-.34.28-.62.62-.62h7.39c.35,0,.62-.27.62-.61V.62c0-.34.28-.62.62-.62h7.4c.34,0,.61.28.61.62v7.4c0,.34.28.61.62.61h7.4c.34,0,.62.28.62.62v7.4c0,.34.27.62.61.62h50.55c.34,0,.62-.28.62-.62v-7.4c0-.34.28-.62.62-.62h7.39c.34,0,.62-.27.62-.61V.62c0-.34.28-.62.62-.62h7.39c.34,0,.62.28.62.62v7.4c0,.34.28.61.62.61h7.39c.34,0,.62.28.62.62v16.03c0,.34.28.62.62.62h7.39c.34,0,.62.27.62.62v7.39c0,.34.28.62.62.62h7.39c.34,0,.62.27.62.62v26.27c0,.34.28.62.62.62h10.41c.35,0,.62.27.62.61Z"/><rect class="cls-1" x="169.81" y="69.58" width="7.55" height="7.55" rx=".62" ry=".62"/><rect class="cls-1" x="162.25" y="86.3" width="7.55" height="7.55" rx=".62" ry=".62"/><rect class="cls-1" x="71.85" y="146.72" width="8.63" height="8.63" rx=".62" ry=".62"/><rect class="cls-1" x="97.74" y="146.72" width="8.63" height="8.63" rx=".62" ry=".62"/></svg>