<?xml version="1.0" encoding="UTF-8"?><svg id="_レイヤー_1" xmlns="http://www.w3.org/2000/svg" viewBox="0 0 332.8 36.32"><defs><style>.cls-1{fill:#7caa4a;}</style></defs><path class="cls-1" d="M45.19,5.68h-3.09c-.21,0-.36-.09-.36-.22v-2.28c0-.31-.28-.53-.66-.53h-11.98c-.38,0-.66.22-.66.53v2.28c0,.13-.15.22-.36.22h-3.18c-.38,0-.66.22-.66.53v20.87c0,.31.28.53.66.53h3.18c.21,0,.36.09.36.22v2.28c0,.31.28.53.66.53h11.98c.38,0,.66-.22.66-.53v-2.28c0-.13.15-.22.36-.22h3.09c.38,0,.66-.22.66-.53v-3.13c0-.31-.28-.53-.66-.53h-3.97c-.38,0-.66.22-.66.53v2.28c0,.13-.15.22-.36.22h-9.83c-.21,0-.35-.09-.35-.22V7.05c0-.13.15-.22.35-.22h9.83c.21,0,.36.09.36.22v2.28c0,.31.28.53.66.53h3.97c.38,0,.66-.22.66-.53v-3.13c0-.31-.28-.53-.66-.53Z"/><path class="cls-1" d="M69.86,14.78h-3.09c-.21,0-.36-.09-.36-.22v-2.28c0-.31-.28-.53-.66-.53h-7.19c-.21,0-.35-.09-.35-.22v-5.32c0-.31-.28-.53-.66-.53h-3.77c-.38,0-.66.22-.66.53v23.9c0,.31.28.53.66.53h3.77c.38,0,.66-.22.66-.53v-14.42c0-.13.15-.22.35-.22h6.52c.21,0,.35.09.35.22v14.42c0,.31.28.53.66.53h3.77c.38,0,.66-.22.66-.53v-14.8c0-.31-.28-.53-.66-.53Z"/><path class="cls-1" d="M93.69,14.78h-3.09c-.21,0-.36-.09-.36-.22v-2.28c0-.31-.28-.53-.66-.53h-7.87c-.38,0-.66.22-.66.53v2.28c0,.31.28.53.66.53h7.19c.21,0,.35.09.35.22v2.46c0,.13-.15.22-.35.22h-7.19c-.38,0-.66.22-.66.53v2.2c0,.13-.15.22-.35.22h-3.09c-.38,0-.66.22-.66.53v5.52c0,.31.28.53.66.53h3.09c.21,0,.35.09.35.22v2.37c0,.31.28.53.66.53h11.97c.38,0,.66-.22.66-.53v-14.8c0-.31-.28-.53-.66-.53ZM82.4,21.41h6.52c.21,0,.35.09.35.22v5.18c0,.13-.15.22-.35.22h-6.52c-.21,0-.36-.09-.36-.22v-5.18c0-.13.15-.22.36-.22Z"/><path class="cls-1" d="M118.32,14.78h-3.09c-.21,0-.36-.09-.36-.22v-2.28c0-.31-.28-.53-.66-.53h-11.98c-.38,0-.66.22-.66.53v17.83c0,.31.28.53.66.53h3.77c.38,0,.66-.22.66-.53v-14.42c0-.13.15-.22.36-.22h6.52c.21,0,.36.09.36.22v14.42c0,.31.28.53.66.53h3.77c.38,0,.66-.22.66-.53v-14.8c0-.31-.28-.53-.66-.53Z"/><path class="cls-1" d="M142.25,11.75h-11.97c-.38,0-.66.22-.66.53v2.28c0,.13-.15.22-.36.22h-3.09c-.38,0-.66.22-.66.53v8.73c0,.31.28.53.66.53l3.08-.09c.21,0,.36.09.36.22v2.2c0,.31.28.53.66.53h7.19c.21,0,.36.09.36.22v2.46c0,.13-.15.22-.36.22h-7.19c-.38,0-.66.22-.66.53v2.28c0,.31.28.53.66.53h7.87c.38,0,.66-.22.66-.53v-2.28c0-.13.15-.22.36-.22h3.09c.38,0,.66-.22.66-.53V12.28c0-.31-.28-.53-.66-.53ZM137.83,15.77v7.8c0,.13-.15.22-.36.22h-6.52c-.21,0-.36-.09-.36-.22v-7.8c0-.13.15-.22.36-.22h6.52c.21,0,.36.09.36.22Z"/><path class="cls-1" d="M166.62,14.78h-3.09c-.21,0-.35-.09-.35-.22v-2.28c0-.31-.28-.53-.66-.53h-7.87c-.38,0-.66.22-.66.53v2.28c0,.13-.15.22-.36.22h-3.09c-.38,0-.66.22-.66.53v11.76c0,.31.28.53.66.53h3.09c.21,0,.36.09.36.22v2.28c0,.31.28.53.66.53h7.87c.38,0,.66-.22.66-.53v-2.28c0-.13.15-.22.35-.22h3.09c.38,0,.66-.22.66-.53v-2.16c0-.31-.28-.53-.66-.53h-3.77c-.38,0-.66.22-.66.53v1.78c0,.13-.15.22-.36.22h-6.52c-.21,0-.36-.09-.36-.22v-4.73c0-.13.15-.22.36-.22h11.3c.38,0,.66-.22.66-.53v-5.9c0-.31-.28-.53-.66-.53ZM162.2,15.6v2.93c0,.13-.15.22-.36.22h-6.52c-.21,0-.36-.09-.36-.22v-2.93c0-.13.15-.22.36-.22h6.52c.21,0,.36.09.36.22Z"/><path class="cls-1" d="M184.44,26.92h-3.09c-.21,0-.36-.09-.36-.22V6.21c0-.31-.28-.53-.66-.53h-7.87c-.38,0-.66.22-.66.53v2.66c0,.31.28.53.66.53h3.09c.21,0,.36.09.36.22v20.49c0,.31.28.53.66.53h7.87c.38,0,.66-.22.66-.53v-2.66c0-.31-.28-.53-.66-.53Z"/><path class="cls-1" d="M207.56,14.78h-3.09c-.21,0-.36-.09-.36-.22v-2.28c0-.31-.28-.53-.66-.53h-7.87c-.38,0-.66.22-.66.53v2.28c0,.13-.15.22-.35.22h-3.09c-.38,0-.66.22-.66.53v11.76c0,.31.28.53.66.53h3.09c.21,0,.35.09.35.22v2.28c0,.31.28.53.66.53h7.87c.38,0,.66-.22.66-.53v-2.28c0-.13.15-.22.36-.22h3.09c.38,0,.66-.22.66-.53v-11.76c0-.31-.28-.53-.66-.53ZM203.13,15.69v11.01c0,.13-.15.22-.35.22h-6.52c-.21,0-.36-.09-.36-.22v-11.01c0-.13.15-.22.36-.22h6.52c.21,0,.35.09.35.22Z"/><path class="cls-1" d="M261.13,5.68h-2.88c-.21,0-.36-.09-.36-.22v-2.28c0-.31-.28-.53-.66-.53h-15.79c-.38,0-.66.22-.66.53v26.93c0,.31.28.53.66.53h15.79c.38,0,.66-.22.66-.53v-2.28c0-.13.15-.22.36-.22h2.88c.38,0,.66-.22.66-.53v-8.55c0-.31-.28-.53-.66-.53h-2.88c-.21,0-.36-.09-.36-.22v-2.25c0-.13.15-.22.36-.22h2.88c.38,0,.66-.22.66-.53V6.21c0-.31-.28-.53-.66-.53ZM245.49,18.72c0-.13.15-.22.36-.22h10.71c.21,0,.35.09.35.22v7.98c0,.13-.15.22-.35.22h-10.71c-.21,0-.36-.09-.36-.22v-7.98ZM256.91,14.56c0,.13-.15.22-.35.22h-10.71c-.21,0-.36-.09-.36-.22v-7.98c0-.13.15-.22.36-.22h10.71c.21,0,.35.09.35.22v7.98Z"/><path class="cls-1" d="M285.92,14.78h-3.09c-.21,0-.35-.09-.35-.22v-2.28c0-.31-.28-.53-.66-.53h-7.87c-.38,0-.66.22-.66.53v2.28c0,.13-.15.22-.36.22h-3.09c-.38,0-.66.22-.66.53v11.76c0,.31.28.53.66.53h3.09c.21,0,.36.09.36.22v2.28c0,.31.28.53.66.53h7.87c.38,0,.66-.22.66-.53v-2.28c0-.13.15-.22.35-.22h3.09c.38,0,.66-.22.66-.53v-11.76c0-.31-.28-.53-.66-.53ZM281.5,15.69v11.01c0,.13-.15.22-.36.22h-6.52c-.21,0-.36-.09-.36-.22v-11.01c0-.13.15-.22.36-.22h6.52c.21,0,.36.09.36.22Z"/><path class="cls-1" d="M300.9,15.46h6.99c.38,0,.66-.22.66-.53v-2.66c0-.31-.28-.53-.66-.53h-6.99c-.21,0-.36-.09-.36-.22v-5.32c0-.31-.28-.53-.66-.53h-3.77c-.38,0-.66.22-.66.53v5.32c0,.13-.15.22-.36.22h-3.09c-.38,0-.66.22-.66.53v2.66c0,.31.28.53.66.53h3.09c.21,0,.36.09.36.22v11.39c0,.31.28.53.66.53h3.09c.21,0,.35.09.35.22v2.28c0,.31.28.53.66.53h7.66c.38,0,.66-.22.66-.53v-2.66c0-.31-.28-.53-.66-.53h-6.99c-.21,0-.36-.09-.36-.22v-11.01c0-.13.15-.22.36-.22Z"/><path class="cls-1" d="M231.36,11.75h-11.97c-.38,0-.66.22-.66.53v2.28c0,.13-.15.22-.36.22h-3.09c-.38,0-.66.22-.66.53v8.73c0,.31.28.53.66.53l3.08-.09c.21,0,.36.09.36.22v2.2c0,.31.28.53.66.53h7.19c.21,0,.36.09.36.22v2.46c0,.13-.15.22-.36.22h-7.19c-.38,0-.66.22-.66.53v2.28c0,.31.28.53.66.53h7.87c.38,0,.66-.22.66-.53v-2.28c0-.13.15-.22.36-.22h3.09c.38,0,.66-.22.66-.53V12.28c0-.31-.28-.53-.66-.53ZM226.93,15.77v7.8c0,.13-.15.22-.36.22h-6.52c-.21,0-.36-.09-.36-.22v-7.8c0-.13.15-.22.36-.22h6.52c.21,0,.36.09.36.22Z"/></svg>