<?xml version="1.0" encoding="UTF-8"?><svg id="_レイヤー_1" xmlns="http://www.w3.org/2000/svg" viewBox="0 0 300.49 219.73"><defs><style>.cls-1{fill:#171917;}.cls-2{fill:#7caa4a;}</style></defs><path class="cls-2" d="M29.02,185.81h-3.09c-.21,0-.36-.09-.36-.22v-2.28c0-.31-.28-.53-.66-.53h-11.98c-.38,0-.66.22-.66.53v2.28c0,.13-.15.22-.36.22h-3.18c-.38,0-.66.22-.66.53v20.87c0,.31.28.53.66.53h3.18c.21,0,.36.09.36.22v2.28c0,.31.28.53.66.53h11.98c.38,0,.66-.22.66-.53v-2.28c0-.13.15-.22.36-.22h3.09c.38,0,.66-.22.66-.53v-3.13c0-.31-.28-.53-.66-.53h-3.97c-.38,0-.66.22-.66.53v2.28c0,.13-.15.22-.36.22h-9.83c-.21,0-.35-.09-.35-.22v-19.18c0-.13.15-.22.35-.22h9.83c.21,0,.36.09.36.22v2.28c0,.31.28.53.66.53h3.97c.38,0,.66-.22.66-.53v-3.13c0-.31-.28-.53-.66-.53Z"/><path class="cls-2" d="M53.69,194.92h-3.09c-.21,0-.36-.09-.36-.22v-2.28c0-.31-.28-.53-.66-.53h-7.19c-.21,0-.35-.09-.35-.22v-5.32c0-.31-.28-.53-.66-.53h-3.77c-.38,0-.66.22-.66.53v23.9c0,.31.28.53.66.53h3.77c.38,0,.66-.22.66-.53v-14.42c0-.13.15-.22.35-.22h6.52c.21,0,.35.09.35.22v14.42c0,.31.28.53.66.53h3.77c.38,0,.66-.22.66-.53v-14.8c0-.31-.28-.53-.66-.53Z"/><path class="cls-2" d="M77.53,194.92h-3.09c-.21,0-.36-.09-.36-.22v-2.28c0-.31-.28-.53-.66-.53h-7.87c-.38,0-.66.22-.66.53v2.28c0,.31.28.53.66.53h7.19c.21,0,.35.09.35.22v2.46c0,.13-.15.22-.35.22h-7.19c-.38,0-.66.22-.66.53v2.2c0,.13-.15.22-.35.22h-3.09c-.38,0-.66.22-.66.53v5.52c0,.31.28.53.66.53h3.09c.21,0,.35.09.35.22v2.37c0,.31.28.53.66.53h11.97c.38,0,.66-.22.66-.53v-14.8c0-.31-.28-.53-.66-.53ZM66.23,201.55h6.52c.21,0,.35.09.35.22v5.18c0,.13-.15.22-.35.22h-6.52c-.21,0-.36-.09-.36-.22v-5.18c0-.13.15-.22.36-.22Z"/><path class="cls-2" d="M102.15,194.92h-3.09c-.21,0-.36-.09-.36-.22v-2.28c0-.31-.28-.53-.66-.53h-11.98c-.38,0-.66.22-.66.53v17.83c0,.31.28.53.66.53h3.77c.38,0,.66-.22.66-.53v-14.42c0-.13.15-.22.36-.22h6.52c.21,0,.36.09.36.22v14.42c0,.31.28.53.66.53h3.77c.38,0,.66-.22.66-.53v-14.8c0-.31-.28-.53-.66-.53Z"/><path class="cls-2" d="M126.09,191.88h-11.97c-.38,0-.66.22-.66.53v2.28c0,.13-.15.22-.36.22h-3.09c-.38,0-.66.22-.66.53v8.73c0,.31.28.53.66.53l3.08-.09c.21,0,.36.09.36.22v2.2c0,.31.28.53.66.53h7.19c.21,0,.36.09.36.22v2.46c0,.13-.15.22-.36.22h-7.19c-.38,0-.66.22-.66.53v2.28c0,.31.28.53.66.53h7.87c.38,0,.66-.22.66-.53v-2.28c0-.13.15-.22.36-.22h3.09c.38,0,.66-.22.66-.53v-17.83c0-.31-.28-.53-.66-.53ZM121.66,195.91v7.8c0,.13-.15.22-.36.22h-6.52c-.21,0-.36-.09-.36-.22v-7.8c0-.13.15-.22.36-.22h6.52c.21,0,.36.09.36.22Z"/><path class="cls-2" d="M150.46,194.92h-3.09c-.21,0-.35-.09-.35-.22v-2.28c0-.31-.28-.53-.66-.53h-7.87c-.38,0-.66.22-.66.53v2.28c0,.13-.15.22-.36.22h-3.09c-.38,0-.66.22-.66.53v11.76c0,.31.28.53.66.53h3.09c.21,0,.36.09.36.22v2.28c0,.31.28.53.66.53h7.87c.38,0,.66-.22.66-.53v-2.28c0-.13.15-.22.35-.22h3.09c.38,0,.66-.22.66-.53v-2.16c0-.31-.28-.53-.66-.53h-3.77c-.38,0-.66.22-.66.53v1.78c0,.13-.15.22-.36.22h-6.52c-.21,0-.36-.09-.36-.22v-4.73c0-.13.15-.22.36-.22h11.3c.38,0,.66-.22.66-.53v-5.9c0-.31-.28-.53-.66-.53ZM146.03,195.73v2.93c0,.13-.15.22-.36.22h-6.52c-.21,0-.36-.09-.36-.22v-2.93c0-.13.15-.22.36-.22h6.52c.21,0,.36.09.36.22Z"/><path class="cls-2" d="M168.27,207.05h-3.09c-.21,0-.36-.09-.36-.22v-20.49c0-.31-.28-.53-.66-.53h-7.87c-.38,0-.66.22-.66.53v2.66c0,.31.28.53.66.53h3.09c.21,0,.36.09.36.22v20.49c0,.31.28.53.66.53h7.87c.38,0,.66-.22.66-.53v-2.66c0-.31-.28-.53-.66-.53Z"/><path class="cls-2" d="M191.39,194.92h-3.09c-.21,0-.36-.09-.36-.22v-2.28c0-.31-.28-.53-.66-.53h-7.87c-.38,0-.66.22-.66.53v2.28c0,.13-.15.22-.35.22h-3.09c-.38,0-.66.22-.66.53v11.76c0,.31.28.53.66.53h3.09c.21,0,.35.09.35.22v2.28c0,.31.28.53.66.53h7.87c.38,0,.66-.22.66-.53v-2.28c0-.13.15-.22.36-.22h3.09c.38,0,.66-.22.66-.53v-11.76c0-.31-.28-.53-.66-.53ZM186.96,195.82v11.01c0,.13-.15.22-.35.22h-6.52c-.21,0-.36-.09-.36-.22v-11.01c0-.13.15-.22.36-.22h6.52c.21,0,.35.09.35.22Z"/><path class="cls-2" d="M244.96,185.81h-2.88c-.21,0-.36-.09-.36-.22v-2.28c0-.31-.28-.53-.66-.53h-15.79c-.38,0-.66.22-.66.53v26.93c0,.31.28.53.66.53h15.79c.38,0,.66-.22.66-.53v-2.28c0-.13.15-.22.36-.22h2.88c.38,0,.66-.22.66-.53v-8.55c0-.31-.28-.53-.66-.53h-2.88c-.21,0-.36-.09-.36-.22v-2.25c0-.13.15-.22.36-.22h2.88c.38,0,.66-.22.66-.53v-8.55c0-.31-.28-.53-.66-.53ZM229.32,198.86c0-.13.15-.22.36-.22h10.71c.21,0,.35.09.35.22v7.98c0,.13-.15.22-.35.22h-10.71c-.21,0-.36-.09-.36-.22v-7.98ZM240.74,194.69c0,.13-.15.22-.35.22h-10.71c-.21,0-.36-.09-.36-.22v-7.98c0-.13.15-.22.36-.22h10.71c.21,0,.35.09.35.22v7.98Z"/><path class="cls-2" d="M269.76,194.92h-3.09c-.21,0-.35-.09-.35-.22v-2.28c0-.31-.28-.53-.66-.53h-7.87c-.38,0-.66.22-.66.53v2.28c0,.13-.15.22-.36.22h-3.09c-.38,0-.66.22-.66.53v11.76c0,.31.28.53.66.53h3.09c.21,0,.36.09.36.22v2.28c0,.31.28.53.66.53h7.87c.38,0,.66-.22.66-.53v-2.28c0-.13.15-.22.35-.22h3.09c.38,0,.66-.22.66-.53v-11.76c0-.31-.28-.53-.66-.53ZM265.33,195.82v11.01c0,.13-.15.22-.36.22h-6.52c-.21,0-.36-.09-.36-.22v-11.01c0-.13.15-.22.36-.22h6.52c.21,0,.36.09.36.22Z"/><path class="cls-2" d="M284.73,195.6h6.99c.38,0,.66-.22.66-.53v-2.66c0-.31-.28-.53-.66-.53h-6.99c-.21,0-.36-.09-.36-.22v-5.32c0-.31-.28-.53-.66-.53h-3.77c-.38,0-.66.22-.66.53v5.32c0,.13-.15.22-.36.22h-3.09c-.38,0-.66.22-.66.53v2.66c0,.31.28.53.66.53h3.09c.21,0,.36.09.36.22v11.39c0,.31.28.53.66.53h3.09c.21,0,.35.09.35.22v2.28c0,.31.28.53.66.53h7.66c.38,0,.66-.22.66-.53v-2.66c0-.31-.28-.53-.66-.53h-6.99c-.21,0-.36-.09-.36-.22v-11.01c0-.13.15-.22.36-.22Z"/><path class="cls-2" d="M215.19,191.88h-11.97c-.38,0-.66.22-.66.53v2.28c0,.13-.15.22-.36.22h-3.09c-.38,0-.66.22-.66.53v8.73c0,.31.28.53.66.53l3.08-.09c.21,0,.36.09.36.22v2.2c0,.31.28.53.66.53h7.19c.21,0,.36.09.36.22v2.46c0,.13-.15.22-.36.22h-7.19c-.38,0-.66.22-.66.53v2.28c0,.31.28.53.66.53h7.87c.38,0,.66-.22.66-.53v-2.28c0-.13.15-.22.36-.22h3.09c.38,0,.66-.22.66-.53v-17.83c0-.31-.28-.53-.66-.53ZM210.77,195.91v7.8c0,.13-.15.22-.36.22h-6.52c-.21,0-.36-.09-.36-.22v-7.8c0-.13.15-.22.36-.22h6.52c.21,0,.36.09.36.22Z"/><rect class="cls-2" x="98.88" y="126.76" width="8.63" height="8.63" rx=".62" ry=".62"/><rect class="cls-2" x="193.82" y="126.76" width="8.63" height="8.63" rx=".62" ry=".62"/><rect class="cls-2" x="61.56" y="75.51" width="7.55" height="7.55" rx=".62" ry=".62"/><rect class="cls-2" x="69.11" y="92.23" width="7.55" height="7.55" rx=".62" ry=".62"/><path class="cls-2" d="M223.81,67.96h-3.48c-.34,0-.62-.28-.62-.62v-26.27c0-.34-.28-.62-.62-.62h-7.39c-.34,0-.62-.28-.62-.62v-7.39c0-.34-.28-.62-.62-.62h-7.39c-.34,0-.62-.28-.62-.62V15.18c0-.34-.28-.62-.62-.62h-7.39c-.34,0-.62-.28-.62-.62v-7.39c0-.34-.28-.62-.62-.62h-7.39c-.34,0-.62.28-.62.62v7.39c0,.34-.28.62-.62.62h-7.39c-.34,0-.62.28-.62.62v7.39c0,.34-.28.62-.62.62h-50.54c-.34,0-.62-.28-.62-.62v-7.39c0-.34-.28-.62-.62-.62h-7.39c-.34,0-.62-.28-.62-.62v-7.39c0-.34-.28-.62-.62-.62h-7.39c-.34,0-.62.28-.62.62v7.39c0,.34-.28.62-.62.62h-7.39c-.34,0-.62.28-.62.62v16.02c0,.34-.28.62-.62.62h-7.39c-.34,0-.62.28-.62.62v7.39c0,.34-.28.62-.62.62h-7.39c-.34,0-.62.28-.62.62v26.27c0,.34-.28.62-.62.62h-11.28c-.34,0-.62.28-.62.62v6.31c0,.34.28.62.62.62h11.28c.34,0,.62.28.62.62v8.55h-4.34c-.34,0-.62.28-.62.62v6.31c0,.34.28.62.62.62h4.34s8.01,0,8.01,0c.34,0,.62.28.62.62v7.39c0,.34.28.62.62.62h7.39c.34,0,.62.28.62.62v7.39c0,.34.28.62.62.62h16.02c.34,0,.62.28.62.62v7.39c0,.34-.28.62-.62.62h-7.39c-.34,0-.62.28-.62.62v7.39c0,.34.28.62.62.62h7.39c.34,0,.62.28.62.62v7.39c0,.34.28.62.62.62h7.39c.34,0,.62.28.62.62v16.02c0,.34.28.62.62.62h7.39c.34,0,.62-.28.62-.62v-7.39c0-.34.28-.62.62-.62h33.28c.34,0,.62.28.62.62v7.39c0,.34.28.62.62.62h7.39c.34,0,.62-.28.62-.62v-16.02c0-.34.28-.62.62-.62h7.39c.34,0,.62-.28.62-.62v-7.39c0-.34.28-.62.62-.62h7.39c.34,0,.62-.28.62-.62v-7.39c0-.34-.28-.62-.62-.62h-7.39c-.34,0-.62-.28-.62-.62v-7.39c0-.34.28-.62.62-.62h16.02c.34,0,.62-.28.62-.62v-7.39c0-.34.28-.62.62-.62h7.39c.34,0,.62-.28.62-.62v-7.39c0-.34.28-.62.62-.62h8.01s3.48,0,3.48,0c.34,0,.62-.28.62-.62v-6.31c0-.34-.28-.62-.62-.62h-3.48v-8.55c0-.34.28-.62.62-.62h10.41c.34,0,.62-.28.62-.62v-6.31c0-.34-.28-.62-.62-.62h-6.93Z"/><rect class="cls-2" x="231.36" y="75.51" width="7.55" height="7.55" rx=".62" ry=".62"/><rect class="cls-2" x="223.81" y="92.23" width="7.55" height="7.55" rx=".62" ry=".62"/><rect class="cls-2" x="133.4" y="152.65" width="8.63" height="8.63" rx=".62" ry=".62"/><rect class="cls-2" x="159.3" y="152.65" width="8.63" height="8.63" rx=".62" ry=".62"/><path class="cls-1" d="M185.84,56.01v-5.23c0-.34-.28-.62-.62-.62h-69.96c-.34,0-.62.28-.62.62v5.23c0,.34-.28.62-.62.62h-5.23c-.34,0-.62.28-.62.62v18.18c0,.34.28.62.62.62h5.23c.34,0,.62.28.62.62v5.23c0,.34.28.62.62.62h69.96c.34,0,.62-.28.62-.62v-5.23c0-.34.28-.62.62-.62h5.23c.34,0,.62-.28.62-.62v-18.18c0-.34-.28-.62-.62-.62h-5.23c-.34,0-.62-.28-.62-.62Z"/><path class="cls-2" d="M135.61,60.47h1.09s.09-.04.09-.09v-2.45c0-.1-.08-.18-.18-.18h-2.3c-.1,0-.18.08-.18.18v1.84s-.04.09-.09.09h-1.09s-.09.04-.09.09v1.76c0,.1-.08.18-.18.18h-4.36c-.1,0-.18-.08-.18-.18v-1.15s.04-.09.09-.09h1.09s.09-.04.09-.09v-2.45c0-.1-.08-.18-.18-.18h-2.3c-.1,0-.18.08-.18.18v1.84s-.04.09-.09.09h-1.09s-.09.04-.09.09v1.76c0,.1-.08.18-.18.18h-3.1c-.1,0-.18.08-.18.18v2.32c0,.1.08.18.18.18h2.07c.1,0,.18.08.18.18v1.23s-.04.09-.09.09h-1.09s-.09.04-.09.09v1.72c0,.1-.08.18-.18.18h-2.92c-.1,0-.18.08-.18.18v2.32c0,.1.08.18.18.18h1.27c.1,0,.18.08.18.18v1.23s-.04.09-.09.09h-1.09s-.09.04-.09.09v2.45c0,.1.08.18.18.18h2.3c.1,0,.18-.08.18-.18v-1.84s.04-.09.09-.09h1.09s.09-.04.09-.09v-1.84c0-.1.08-.18.18-.18h4.36c.1,0,.18.08.18.18v1.23s-.04.09-.09.09h-1.09s-.09.04-.09.09v2.45c0,.1.08.18.18.18h2.3c.1,0,.18-.08.18-.18v-1.84s.04-.09.09-.09h1.09s.09-.04.09-.09v-1.84c0-.1.08-.18.18-.18h3.32c.1,0,.18-.08.18-.18v-2.32c0-.1-.08-.18-.18-.18h-1.67c-.1,0-.18-.08-.18-.18v-1.11s.04-.09.09-.09h1.09s.09-.04.09-.09v-1.84c0-.1.08-.18.18-.18h2.53c.1,0,.18-.08.18-.18v-2.32c0-.1-.08-.18-.18-.18h-1.5c-.1,0-.18-.08-.18-.18v-1.15s.04-.09.09-.09ZM131.84,64.74v1.23s-.04.09-.09.09h-1.09s-.09.04-.09.09v1.72c0,.1-.08.18-.18.18h-4.36c-.1,0-.18-.08-.18-.18v-1.11s.04-.09.09-.09h1.09s.09-.04.09-.09v-1.84c0-.1.08-.18.18-.18h4.36c.1,0,.18.08.18.18Z"/><path class="cls-2" d="M157.28,60.47h.91c.1,0,.18-.08.18-.18v-2.36c0-.1-.08-.18-.18-.18h-2.3c-.1,0-.18.08-.18.18v1.75c0,.1-.08.18-.18.18h-.91c-.1,0-.18.08-.18.18v1.67c0,.1-.08.18-.18.18h-4.36c-.1,0-.18-.08-.18-.18v-1.06c0-.1.08-.18.18-.18h.91c.1,0,.18-.08.18-.18v-2.36c0-.1-.08-.18-.18-.18h-2.3c-.1,0-.18.08-.18.18v1.75c0,.1-.08.18-.18.18h-.91c-.1,0-.18.08-.18.18v1.67c0,.1-.08.18-.18.18h-3.1c-.1,0-.18.08-.18.18v2.32c0,.1.08.18.18.18h2.07c.1,0,.18.08.18.18v1.14c0,.1-.08.18-.18.18h-.91c-.1,0-.18.08-.18.18v1.63c0,.1-.08.18-.18.18h-2.92c-.1,0-.18.08-.18.18v2.32c0,.1.08.18.18.18h1.27c.1,0,.18.08.18.18v1.14c0,.1-.08.18-.18.18h-.91c-.1,0-.18.08-.18.18v2.36c0,.1.08.18.18.18h2.3c.1,0,.18-.08.18-.18v-1.75c0-.1.08-.18.18-.18h.91c.1,0,.18-.08.18-.18v-1.75c0-.1.08-.18.18-.18h4.36c.1,0,.18.08.18.18v1.14c0,.1-.08.18-.18.18h-.91c-.1,0-.18.08-.18.18v2.36c0,.1.08.18.18.18h2.3c.1,0,.18-.08.18-.18v-1.75c0-.1.08-.18.18-.18h.91c.1,0,.18-.08.18-.18v-1.75c0-.1.08-.18.18-.18h3.32c.1,0,.18-.08.18-.18v-2.32c0-.1-.08-.18-.18-.18h-1.67c-.1,0-.18-.08-.18-.18v-1.02c0-.1.08-.18.18-.18h.91c.1,0,.18-.08.18-.18v-1.75c0-.1.08-.18.18-.18h2.53c.1,0,.18-.08.18-.18v-2.32c0-.1-.08-.18-.18-.18h-1.5c-.1,0-.18-.08-.18-.18v-1.06c0-.1.08-.18.18-.18ZM153.42,64.74v1.14c0,.1-.08.18-.18.18h-.91c-.1,0-.18.08-.18.18v1.63c0,.1-.08.18-.18.18h-4.36c-.1,0-.18-.08-.18-.18v-1.02c0-.1.08-.18.18-.18h.91c.1,0,.18-.08.18-.18v-1.75c0-.1.08-.18.18-.18h4.36c.1,0,.18.08.18.18Z"/><path class="cls-2" d="M177.66,66.49v-1.75c0-.1.08-.18.18-.18h2.53c.1,0,.18-.08.18-.18v-2.32c0-.1-.08-.18-.18-.18h-1.5c-.1,0-.18-.08-.18-.18v-1.06c0-.1.08-.18.18-.18h.91c.1,0,.18-.08.18-.18v-2.36c0-.1-.08-.18-.18-.18h-2.3c-.1,0-.18.08-.18.18v1.75c0,.1-.08.18-.18.18h-.91c-.1,0-.18.08-.18.18v1.67c0,.1-.08.18-.18.18h-4.36c-.1,0-.18-.08-.18-.18v-1.06c0-.1.08-.18.18-.18h.91c.1,0,.18-.08.18-.18v-2.36c0-.1-.08-.18-.18-.18h-2.3c-.1,0-.18.08-.18.18v1.75c0,.1-.08.18-.18.18h-.91c-.1,0-.18.08-.18.18v1.67c0,.1-.08.18-.18.18h-3.1c-.1,0-.18.08-.18.18v2.32c0,.1.08.18.18.18h2.07c.1,0,.18.08.18.18v1.14c0,.1-.08.18-.18.18h-.91c-.1,0-.18.08-.18.18v1.63c0,.1-.08.18-.18.18h-2.92c-.1,0-.18.08-.18.18v2.32c0,.1.08.18.18.18h1.27c.1,0,.18.08.18.18v1.14c0,.1-.08.18-.18.18h-.91c-.1,0-.18.08-.18.18v2.36c0,.1.08.18.18.18h2.3c.1,0,.18-.08.18-.18v-1.75c0-.1.08-.18.18-.18h.91c.1,0,.18-.08.18-.18v-1.75c0-.1.08-.18.18-.18h4.36c.1,0,.18.08.18.18v1.14c0,.1-.08.18-.18.18h-.91c-.1,0-.18.08-.18.18v2.36c0,.1.08.18.18.18h2.3c.1,0,.18-.08.18-.18v-1.75c0-.1.08-.18.18-.18h.91c.1,0,.18-.08.18-.18v-1.75c0-.1.08-.18.18-.18h3.32c.1,0,.18-.08.18-.18v-2.32c0-.1-.08-.18-.18-.18h-1.67c-.1,0-.18-.08-.18-.18v-1.02c0-.1.08-.18.18-.18h.91c.1,0,.18-.08.18-.18ZM175,64.74v1.14c0,.1-.08.18-.18.18h-.91c-.1,0-.18.08-.18.18v1.63c0,.1-.08.18-.18.18h-4.36c-.1,0-.18-.08-.18-.18v-1.02c0-.1.08-.18.18-.18h.91c.1,0,.18-.08.18-.18v-1.75c0-.1.08-.18.18-.18h4.36c.1,0,.18.08.18.18Z"/></svg>