<?xml version="1.0" encoding="UTF-8"?><svg id="_レイヤー_1" xmlns="http://www.w3.org/2000/svg" viewBox="0 0 177.36 155.35"><defs><style>.cls-1{fill:#171917;}.cls-2{fill:#7caa4a;}</style></defs><rect class="cls-2" x="37.33" y="120.83" width="8.63" height="8.63" rx=".62" ry=".62"/><rect class="cls-2" x="132.26" y="120.83" width="8.63" height="8.63" rx=".62" ry=".62"/><rect class="cls-2" y="69.58" width="7.55" height="7.55" rx=".62" ry=".62"/><rect class="cls-2" x="7.55" y="86.3" width="7.55" height="7.55" rx=".62" ry=".62"/><path class="cls-2" d="M162.25,62.03h-3.48c-.34,0-.62-.28-.62-.62v-26.27c0-.34-.28-.62-.62-.62h-7.39c-.34,0-.62-.28-.62-.62v-7.39c0-.34-.28-.62-.62-.62h-7.39c-.34,0-.62-.28-.62-.62V9.25c0-.34-.28-.62-.62-.62h-7.39c-.34,0-.62-.28-.62-.62V.62c0-.34-.28-.62-.62-.62h-7.39c-.34,0-.62.28-.62.62v7.39c0,.34-.28.62-.62.62h-7.39c-.34,0-.62.28-.62.62v7.39c0,.34-.28.62-.62.62h-50.54c-.34,0-.62-.28-.62-.62v-7.39c0-.34-.28-.62-.62-.62h-7.39c-.34,0-.62-.28-.62-.62V.62c0-.34-.28-.62-.62-.62h-7.39c-.34,0-.62.28-.62.62v7.39c0,.34-.28.62-.62.62h-7.39c-.34,0-.62.28-.62.62v16.02c0,.34-.28.62-.62.62h-7.39c-.34,0-.62.28-.62.62v7.39c0,.34-.28.62-.62.62h-7.39c-.34,0-.62.28-.62.62v26.27c0,.34-.28.62-.62.62h-11.28c-.34,0-.62.28-.62.62v6.31c0,.34.28.62.62.62h11.28c.34,0,.62.28.62.62v8.55h-4.34c-.34,0-.62.28-.62.62v6.31c0,.34.28.62.62.62h4.34s8.01,0,8.01,0c.34,0,.62.28.62.62v7.39c0,.34.28.62.62.62h7.39c.34,0,.62.28.62.62v7.39c0,.34.28.62.62.62h16.02c.34,0,.62.28.62.62v7.39c0,.34-.28.62-.62.62h-7.39c-.34,0-.62.28-.62.62v7.39c0,.34.28.62.62.62h7.39c.34,0,.62.28.62.62v7.39c0,.34.28.62.62.62h7.39c.34,0,.62.28.62.62v16.02c0,.34.28.62.62.62h7.39c.34,0,.62-.28.62-.62v-7.39c0-.34.28-.62.62-.62h33.28c.34,0,.62.28.62.62v7.39c0,.34.28.62.62.62h7.39c.34,0,.62-.28.62-.62v-16.02c0-.34.28-.62.62-.62h7.39c.34,0,.62-.28.62-.62v-7.39c0-.34.28-.62.62-.62h7.39c.34,0,.62-.28.62-.62v-7.39c0-.34-.28-.62-.62-.62h-7.39c-.34,0-.62-.28-.62-.62v-7.39c0-.34.28-.62.62-.62h16.02c.34,0,.62-.28.62-.62v-7.39c0-.34.28-.62.62-.62h7.39c.34,0,.62-.28.62-.62v-7.39c0-.34.28-.62.62-.62h8.01s3.48,0,3.48,0c.34,0,.62-.28.62-.62v-6.31c0-.34-.28-.62-.62-.62h-3.48v-8.55c0-.34.28-.62.62-.62h10.41c.34,0,.62-.28.62-.62v-6.31c0-.34-.28-.62-.62-.62h-6.93Z"/><rect class="cls-2" x="169.81" y="69.58" width="7.55" height="7.55" rx=".62" ry=".62"/><rect class="cls-2" x="162.25" y="86.3" width="7.55" height="7.55" rx=".62" ry=".62"/><rect class="cls-2" x="71.85" y="146.72" width="8.63" height="8.63" rx=".62" ry=".62"/><rect class="cls-2" x="97.74" y="146.72" width="8.63" height="8.63" rx=".62" ry=".62"/><path class="cls-1" d="M124.28,50.09v-5.23c0-.34-.28-.62-.62-.62H53.7c-.34,0-.62.28-.62.62v5.23c0,.34-.28.62-.62.62h-5.23c-.34,0-.62.28-.62.62v18.18c0,.34.28.62.62.62h5.23c.34,0,.62.28.62.62v5.23c0,.34.28.62.62.62h69.96c.34,0,.62-.28.62-.62v-5.23c0-.34.28-.62.62-.62h5.23c.34,0,.62-.28.62-.62v-18.18c0-.34-.28-.62-.62-.62h-5.23c-.34,0-.62-.28-.62-.62Z"/><path class="cls-2" d="M74.06,54.55h1.09s.09-.04.09-.09v-2.45c0-.1-.08-.18-.18-.18h-2.3c-.1,0-.18.08-.18.18v1.84s-.04.09-.09.09h-1.09s-.09.04-.09.09v1.76c0,.1-.08.18-.18.18h-4.36c-.1,0-.18-.08-.18-.18v-1.15s.04-.09.09-.09h1.09s.09-.04.09-.09v-2.45c0-.1-.08-.18-.18-.18h-2.3c-.1,0-.18.08-.18.18v1.84s-.04.09-.09.09h-1.09s-.09.04-.09.09v1.76c0,.1-.08.18-.18.18h-3.1c-.1,0-.18.08-.18.18v2.32c0,.1.08.18.18.18h2.07c.1,0,.18.08.18.18v1.23s-.04.09-.09.09h-1.09s-.09.04-.09.09v1.72c0,.1-.08.18-.18.18h-2.92c-.1,0-.18.08-.18.18v2.32c0,.1.08.18.18.18h1.27c.1,0,.18.08.18.18v1.23s-.04.09-.09.09h-1.09s-.09.04-.09.09v2.45c0,.1.08.18.18.18h2.3c.1,0,.18-.08.18-.18v-1.84s.04-.09.09-.09h1.09s.09-.04.09-.09v-1.84c0-.1.08-.18.18-.18h4.36c.1,0,.18.08.18.18v1.23s-.04.09-.09.09h-1.09s-.09.04-.09.09v2.45c0,.1.08.18.18.18h2.3c.1,0,.18-.08.18-.18v-1.84s.04-.09.09-.09h1.09s.09-.04.09-.09v-1.84c0-.1.08-.18.18-.18h3.32c.1,0,.18-.08.18-.18v-2.32c0-.1-.08-.18-.18-.18h-1.67c-.1,0-.18-.08-.18-.18v-1.11s.04-.09.09-.09h1.09s.09-.04.09-.09v-1.84c0-.1.08-.18.18-.18h2.53c.1,0,.18-.08.18-.18v-2.32c0-.1-.08-.18-.18-.18h-1.5c-.1,0-.18-.08-.18-.18v-1.15s.04-.09.09-.09ZM70.29,58.81v1.23s-.04.09-.09.09h-1.09s-.09.04-.09.09v1.72c0,.1-.08.18-.18.18h-4.36c-.1,0-.18-.08-.18-.18v-1.11s.04-.09.09-.09h1.09s.09-.04.09-.09v-1.84c0-.1.08-.18.18-.18h4.36c.1,0,.18.08.18.18Z"/><path class="cls-2" d="M95.73,54.55h.91c.1,0,.18-.08.18-.18v-2.36c0-.1-.08-.18-.18-.18h-2.3c-.1,0-.18.08-.18.18v1.75c0,.1-.08.18-.18.18h-.91c-.1,0-.18.08-.18.18v1.67c0,.1-.08.18-.18.18h-4.36c-.1,0-.18-.08-.18-.18v-1.06c0-.1.08-.18.18-.18h.91c.1,0,.18-.08.18-.18v-2.36c0-.1-.08-.18-.18-.18h-2.3c-.1,0-.18.08-.18.18v1.75c0,.1-.08.18-.18.18h-.91c-.1,0-.18.08-.18.18v1.67c0,.1-.08.18-.18.18h-3.1c-.1,0-.18.08-.18.18v2.32c0,.1.08.18.18.18h2.07c.1,0,.18.08.18.18v1.14c0,.1-.08.18-.18.18h-.91c-.1,0-.18.08-.18.18v1.63c0,.1-.08.18-.18.18h-2.92c-.1,0-.18.08-.18.18v2.32c0,.1.08.18.18.18h1.27c.1,0,.18.08.18.18v1.14c0,.1-.08.18-.18.18h-.91c-.1,0-.18.08-.18.18v2.36c0,.1.08.18.18.18h2.3c.1,0,.18-.08.18-.18v-1.75c0-.1.08-.18.18-.18h.91c.1,0,.18-.08.18-.18v-1.75c0-.1.08-.18.18-.18h4.36c.1,0,.18.08.18.18v1.14c0,.1-.08.18-.18.18h-.91c-.1,0-.18.08-.18.18v2.36c0,.1.08.18.18.18h2.3c.1,0,.18-.08.18-.18v-1.75c0-.1.08-.18.18-.18h.91c.1,0,.18-.08.18-.18v-1.75c0-.1.08-.18.18-.18h3.32c.1,0,.18-.08.18-.18v-2.32c0-.1-.08-.18-.18-.18h-1.67c-.1,0-.18-.08-.18-.18v-1.02c0-.1.08-.18.18-.18h.91c.1,0,.18-.08.18-.18v-1.75c0-.1.08-.18.18-.18h2.53c.1,0,.18-.08.18-.18v-2.32c0-.1-.08-.18-.18-.18h-1.5c-.1,0-.18-.08-.18-.18v-1.06c0-.1.08-.18.18-.18ZM91.87,58.81v1.14c0,.1-.08.18-.18.18h-.91c-.1,0-.18.08-.18.18v1.63c0,.1-.08.18-.18.18h-4.36c-.1,0-.18-.08-.18-.18v-1.02c0-.1.08-.18.18-.18h.91c.1,0,.18-.08.18-.18v-1.75c0-.1.08-.18.18-.18h4.36c.1,0,.18.08.18.18Z"/><path class="cls-2" d="M116.1,60.56v-1.75c0-.1.08-.18.18-.18h2.53c.1,0,.18-.08.18-.18v-2.32c0-.1-.08-.18-.18-.18h-1.5c-.1,0-.18-.08-.18-.18v-1.06c0-.1.08-.18.18-.18h.91c.1,0,.18-.08.18-.18v-2.36c0-.1-.08-.18-.18-.18h-2.3c-.1,0-.18.08-.18.18v1.75c0,.1-.08.18-.18.18h-.91c-.1,0-.18.08-.18.18v1.67c0,.1-.08.18-.18.18h-4.36c-.1,0-.18-.08-.18-.18v-1.06c0-.1.08-.18.18-.18h.91c.1,0,.18-.08.18-.18v-2.36c0-.1-.08-.18-.18-.18h-2.3c-.1,0-.18.08-.18.18v1.75c0,.1-.08.18-.18.18h-.91c-.1,0-.18.08-.18.18v1.67c0,.1-.08.18-.18.18h-3.1c-.1,0-.18.08-.18.18v2.32c0,.1.08.18.18.18h2.07c.1,0,.18.08.18.18v1.14c0,.1-.08.18-.18.18h-.91c-.1,0-.18.08-.18.18v1.63c0,.1-.08.18-.18.18h-2.92c-.1,0-.18.08-.18.18v2.32c0,.1.08.18.18.18h1.27c.1,0,.18.08.18.18v1.14c0,.1-.08.18-.18.18h-.91c-.1,0-.18.08-.18.18v2.36c0,.1.08.18.18.18h2.3c.1,0,.18-.08.18-.18v-1.75c0-.1.08-.18.18-.18h.91c.1,0,.18-.08.18-.18v-1.75c0-.1.08-.18.18-.18h4.36c.1,0,.18.08.18.18v1.14c0,.1-.08.18-.18.18h-.91c-.1,0-.18.08-.18.18v2.36c0,.1.08.18.18.18h2.3c.1,0,.18-.08.18-.18v-1.75c0-.1.08-.18.18-.18h.91c.1,0,.18-.08.18-.18v-1.75c0-.1.08-.18.18-.18h3.32c.1,0,.18-.08.18-.18v-2.32c0-.1-.08-.18-.18-.18h-1.67c-.1,0-.18-.08-.18-.18v-1.02c0-.1.08-.18.18-.18h.91c.1,0,.18-.08.18-.18ZM113.45,58.81v1.14c0,.1-.08.18-.18.18h-.91c-.1,0-.18.08-.18.18v1.63c0,.1-.08.18-.18.18h-4.36c-.1,0-.18-.08-.18-.18v-1.02c0-.1.08-.18.18-.18h.91c.1,0,.18-.08.18-.18v-1.75c0-.1.08-.18.18-.18h4.36c.1,0,.18.08.18.18Z"/></svg>