<?xml version="1.0" encoding="UTF-8"?><svg id="_レイヤー_1" xmlns="http://www.w3.org/2000/svg" viewBox="0 0 300.49 219.73"><defs><style>.cls-1{fill:#7caa4a;}</style></defs><path class="cls-1" d="M29.02,185.81h-3.09c-.21,0-.36-.09-.36-.22v-2.28c0-.31-.28-.53-.66-.53h-11.98c-.38,0-.66.22-.66.53v2.28c0,.13-.15.22-.36.22h-3.18c-.38,0-.66.22-.66.53v20.87c0,.31.28.53.66.53h3.18c.21,0,.36.09.36.22v2.28c0,.31.28.53.66.53h11.98c.38,0,.66-.22.66-.53v-2.28c0-.13.15-.22.36-.22h3.09c.38,0,.66-.22.66-.53v-3.13c0-.31-.28-.53-.66-.53h-3.97c-.38,0-.66.22-.66.53v2.28c0,.13-.15.22-.36.22h-9.83c-.21,0-.35-.09-.35-.22v-19.18c0-.13.15-.22.35-.22h9.83c.21,0,.36.09.36.22v2.28c0,.31.28.53.66.53h3.97c.38,0,.66-.22.66-.53v-3.13c0-.31-.28-.53-.66-.53Z"/><path class="cls-1" d="M53.69,194.92h-3.09c-.21,0-.36-.09-.36-.22v-2.28c0-.31-.28-.53-.66-.53h-7.19c-.21,0-.35-.09-.35-.22v-5.32c0-.31-.28-.53-.66-.53h-3.77c-.38,0-.66.22-.66.53v23.9c0,.31.28.53.66.53h3.77c.38,0,.66-.22.66-.53v-14.42c0-.13.15-.22.35-.22h6.52c.21,0,.35.09.35.22v14.42c0,.31.28.53.66.53h3.77c.38,0,.66-.22.66-.53v-14.8c0-.31-.28-.53-.66-.53Z"/><path class="cls-1" d="M77.53,194.92h-3.09c-.21,0-.36-.09-.36-.22v-2.28c0-.31-.28-.53-.66-.53h-7.87c-.38,0-.66.22-.66.53v2.28c0,.31.28.53.66.53h7.19c.21,0,.35.09.35.22v2.46c0,.13-.15.22-.35.22h-7.19c-.38,0-.66.22-.66.53v2.2c0,.13-.15.22-.35.22h-3.09c-.38,0-.66.22-.66.53v5.52c0,.31.28.53.66.53h3.09c.21,0,.35.09.35.22v2.37c0,.31.28.53.66.53h11.97c.38,0,.66-.22.66-.53v-14.8c0-.31-.28-.53-.66-.53ZM66.23,201.55h6.52c.21,0,.35.09.35.22v5.18c0,.13-.15.22-.35.22h-6.52c-.21,0-.36-.09-.36-.22v-5.18c0-.13.15-.22.36-.22Z"/><path class="cls-1" d="M102.15,194.92h-3.09c-.21,0-.36-.09-.36-.22v-2.28c0-.31-.28-.53-.66-.53h-11.98c-.38,0-.66.22-.66.53v17.83c0,.31.28.53.66.53h3.77c.38,0,.66-.22.66-.53v-14.42c0-.13.15-.22.36-.22h6.52c.21,0,.36.09.36.22v14.42c0,.31.28.53.66.53h3.77c.38,0,.66-.22.66-.53v-14.8c0-.31-.28-.53-.66-.53Z"/><path class="cls-1" d="M126.09,191.88h-11.97c-.38,0-.66.22-.66.53v2.28c0,.13-.15.22-.36.22h-3.09c-.38,0-.66.22-.66.53v8.73c0,.31.28.53.66.53l3.08-.09c.21,0,.36.09.36.22v2.2c0,.31.28.53.66.53h7.19c.21,0,.36.09.36.22v2.46c0,.13-.15.22-.36.22h-7.19c-.38,0-.66.22-.66.53v2.28c0,.31.28.53.66.53h7.87c.38,0,.66-.22.66-.53v-2.28c0-.13.15-.22.36-.22h3.09c.38,0,.66-.22.66-.53v-17.83c0-.31-.28-.53-.66-.53ZM121.66,195.91v7.8c0,.13-.15.22-.36.22h-6.52c-.21,0-.36-.09-.36-.22v-7.8c0-.13.15-.22.36-.22h6.52c.21,0,.36.09.36.22Z"/><path class="cls-1" d="M150.46,194.92h-3.09c-.21,0-.35-.09-.35-.22v-2.28c0-.31-.28-.53-.66-.53h-7.87c-.38,0-.66.22-.66.53v2.28c0,.13-.15.22-.36.22h-3.09c-.38,0-.66.22-.66.53v11.76c0,.31.28.53.66.53h3.09c.21,0,.36.09.36.22v2.28c0,.31.28.53.66.53h7.87c.38,0,.66-.22.66-.53v-2.28c0-.13.15-.22.35-.22h3.09c.38,0,.66-.22.66-.53v-2.16c0-.31-.28-.53-.66-.53h-3.77c-.38,0-.66.22-.66.53v1.78c0,.13-.15.22-.36.22h-6.52c-.21,0-.36-.09-.36-.22v-4.73c0-.13.15-.22.36-.22h11.3c.38,0,.66-.22.66-.53v-5.9c0-.31-.28-.53-.66-.53ZM146.03,195.73v2.93c0,.13-.15.22-.36.22h-6.52c-.21,0-.36-.09-.36-.22v-2.93c0-.13.15-.22.36-.22h6.52c.21,0,.36.09.36.22Z"/><path class="cls-1" d="M168.27,207.05h-3.09c-.21,0-.36-.09-.36-.22v-20.49c0-.31-.28-.53-.66-.53h-7.87c-.38,0-.66.22-.66.53v2.66c0,.31.28.53.66.53h3.09c.21,0,.36.09.36.22v20.49c0,.31.28.53.66.53h7.87c.38,0,.66-.22.66-.53v-2.66c0-.31-.28-.53-.66-.53Z"/><path class="cls-1" d="M191.39,194.92h-3.09c-.21,0-.36-.09-.36-.22v-2.28c0-.31-.28-.53-.66-.53h-7.87c-.38,0-.66.22-.66.53v2.28c0,.13-.15.22-.35.22h-3.09c-.38,0-.66.22-.66.53v11.76c0,.31.28.53.66.53h3.09c.21,0,.35.09.35.22v2.28c0,.31.28.53.66.53h7.87c.38,0,.66-.22.66-.53v-2.28c0-.13.15-.22.36-.22h3.09c.38,0,.66-.22.66-.53v-11.76c0-.31-.28-.53-.66-.53ZM186.96,195.82v11.01c0,.13-.15.22-.35.22h-6.52c-.21,0-.36-.09-.36-.22v-11.01c0-.13.15-.22.36-.22h6.52c.21,0,.35.09.35.22Z"/><path class="cls-1" d="M244.96,185.81h-2.88c-.21,0-.36-.09-.36-.22v-2.28c0-.31-.28-.53-.66-.53h-15.79c-.38,0-.66.22-.66.53v26.93c0,.31.28.53.66.53h15.79c.38,0,.66-.22.66-.53v-2.28c0-.13.15-.22.36-.22h2.88c.38,0,.66-.22.66-.53v-8.55c0-.31-.28-.53-.66-.53h-2.88c-.21,0-.36-.09-.36-.22v-2.25c0-.13.15-.22.36-.22h2.88c.38,0,.66-.22.66-.53v-8.55c0-.31-.28-.53-.66-.53ZM229.32,198.86c0-.13.15-.22.36-.22h10.71c.21,0,.35.09.35.22v7.98c0,.13-.15.22-.35.22h-10.71c-.21,0-.36-.09-.36-.22v-7.98ZM240.74,194.69c0,.13-.15.22-.35.22h-10.71c-.21,0-.36-.09-.36-.22v-7.98c0-.13.15-.22.36-.22h10.71c.21,0,.35.09.35.22v7.98Z"/><path class="cls-1" d="M269.76,194.92h-3.09c-.21,0-.35-.09-.35-.22v-2.28c0-.31-.28-.53-.66-.53h-7.87c-.38,0-.66.22-.66.53v2.28c0,.13-.15.22-.36.22h-3.09c-.38,0-.66.22-.66.53v11.76c0,.31.28.53.66.53h3.09c.21,0,.36.09.36.22v2.28c0,.31.28.53.66.53h7.87c.38,0,.66-.22.66-.53v-2.28c0-.13.15-.22.35-.22h3.09c.38,0,.66-.22.66-.53v-11.76c0-.31-.28-.53-.66-.53ZM265.33,195.82v11.01c0,.13-.15.22-.36.22h-6.52c-.21,0-.36-.09-.36-.22v-11.01c0-.13.15-.22.36-.22h6.52c.21,0,.36.09.36.22Z"/><path class="cls-1" d="M284.73,195.6h6.99c.38,0,.66-.22.66-.53v-2.66c0-.31-.28-.53-.66-.53h-6.99c-.21,0-.36-.09-.36-.22v-5.32c0-.31-.28-.53-.66-.53h-3.77c-.38,0-.66.22-.66.53v5.32c0,.13-.15.22-.36.22h-3.09c-.38,0-.66.22-.66.53v2.66c0,.31.28.53.66.53h3.09c.21,0,.36.09.36.22v11.39c0,.31.28.53.66.53h3.09c.21,0,.35.09.35.22v2.28c0,.31.28.53.66.53h7.66c.38,0,.66-.22.66-.53v-2.66c0-.31-.28-.53-.66-.53h-6.99c-.21,0-.36-.09-.36-.22v-11.01c0-.13.15-.22.36-.22Z"/><path class="cls-1" d="M215.19,191.88h-11.97c-.38,0-.66.22-.66.53v2.28c0,.13-.15.22-.36.22h-3.09c-.38,0-.66.22-.66.53v8.73c0,.31.28.53.66.53l3.08-.09c.21,0,.36.09.36.22v2.2c0,.31.28.53.66.53h7.19c.21,0,.36.09.36.22v2.46c0,.13-.15.22-.36.22h-7.19c-.38,0-.66.22-.66.53v2.28c0,.31.28.53.66.53h7.87c.38,0,.66-.22.66-.53v-2.28c0-.13.15-.22.36-.22h3.09c.38,0,.66-.22.66-.53v-17.83c0-.31-.28-.53-.66-.53ZM210.77,195.91v7.8c0,.13-.15.22-.36.22h-6.52c-.21,0-.36-.09-.36-.22v-7.8c0-.13.15-.22.36-.22h6.52c.21,0,.36.09.36.22Z"/><rect class="cls-1" x="98.88" y="126.76" width="8.63" height="8.63" rx=".62" ry=".62"/><rect class="cls-1" x="193.82" y="126.76" width="8.63" height="8.63" rx=".62" ry=".62"/><rect class="cls-1" x="61.56" y="75.51" width="7.55" height="7.55" rx=".62" ry=".62"/><rect class="cls-1" x="69.11" y="92.23" width="7.55" height="7.55" rx=".62" ry=".62"/><path class="cls-1" d="M231.36,68.58v6.32c0,.34-.27.62-.62.62h-10.41c-.34,0-.62.27-.62.62v8.55h3.48c.34,0,.62.27.62.62v6.31c0,.34-.28.62-.62.62h-11.49c-.34,0-.62.28-.62.62v7.39c0,.34-.28.62-.62.62h-7.39c-.34,0-.62.28-.62.62v7.39c0,.34-.28.62-.62.62h-16.02c-.34,0-.62.28-.62.62v7.39c0,.34.28.62.62.62h7.39c.34,0,.62.28.62.62v7.39c0,.34-.28.62-.62.62h-7.39c-.34,0-.62.28-.62.62v7.39c0,.34-.28.62-.62.62h-7.39c-.34,0-.62.28-.62.62v16.02c0,.34-.28.62-.62.62h-7.39c-.34,0-.62-.28-.62-.62v-7.39c0-.34-.28-.62-.62-.62h-33.28c-.35,0-.62.28-.62.62v7.39c0,.34-.28.62-.62.62h-7.39c-.35,0-.62-.28-.62-.62v-16.02c0-.34-.28-.62-.62-.62h-7.39c-.35,0-.62-.28-.62-.62v-7.39c0-.34-.28-.62-.62-.62h-7.4c-.34,0-.61-.28-.61-.62v-7.39c0-.34.27-.62.61-.62h7.4c.34,0,.62-.28.62-.62v-7.39c0-.34-.28-.62-.62-.62h-16.03c-.34,0-.62-.28-.62-.62v-7.39c0-.34-.27-.62-.61-.62h-7.4c-.34,0-.62-.28-.62-.62v-7.39c0-.34-.27-.62-.62-.62h-12.35c-.34,0-.62-.28-.62-.62v-6.31c0-.35.28-.62.62-.62h4.34v-8.55c0-.35-.27-.62-.62-.62h-11.27c-.34,0-.62-.28-.62-.62v-6.32c0-.34.28-.62.62-.62h11.27c.35,0,.62-.27.62-.62v-26.27c0-.34.28-.62.62-.62h7.39c.35,0,.62-.27.62-.61v-7.4c0-.34.28-.62.62-.62h7.4c.34,0,.61-.27.61-.61V15.18c0-.34.28-.62.62-.62h7.4c.34,0,.62-.27.62-.62v-7.39c0-.34.27-.62.61-.62h7.4c.34,0,.62.28.62.62v7.39c0,.35.27.62.62.62h7.39c.34,0,.62.28.62.62v7.39c0,.35.27.62.62.62h50.54c.34,0,.62-.27.62-.62v-7.39c0-.34.28-.62.62-.62h7.39c.34,0,.62-.27.62-.62v-7.39c0-.34.28-.62.62-.62h7.39c.34,0,.62.28.62.62v7.39c0,.35.28.62.62.62h7.39c.34,0,.62.28.62.62v16.03c0,.34.28.61.62.61h7.39c.34,0,.62.28.62.62v7.4c0,.34.28.61.62.61h7.39c.35,0,.62.28.62.62v26.27c0,.35.28.62.62.62h10.41c.35,0,.62.28.62.62Z"/><rect class="cls-1" x="231.36" y="75.51" width="7.55" height="7.55" rx=".62" ry=".62"/><rect class="cls-1" x="223.81" y="92.23" width="7.55" height="7.55" rx=".62" ry=".62"/><rect class="cls-1" x="133.4" y="152.65" width="8.63" height="8.63" rx=".62" ry=".62"/><rect class="cls-1" x="159.3" y="152.65" width="8.63" height="8.63" rx=".62" ry=".62"/></svg>