<?xml version="1.0" encoding="UTF-8"?><svg id="_レイヤー_1" xmlns="http://www.w3.org/2000/svg" viewBox="0 0 600 400"><defs><style>.cls-1{fill:#171917;}.cls-2{fill:#7caa4a;}</style></defs><rect class="cls-1" width="600" height="400"/><path class="cls-2" d="M230.45,243.58h-1.77c-.12,0-.2-.05-.2-.13v-1.31c0-.18-.16-.3-.38-.3h-6.87c-.22,0-.38.13-.38.3v1.31c0,.07-.09.13-.2.13h-1.82c-.22,0-.38.13-.38.3v11.97c0,.18.16.3.38.3h1.82c.12,0,.2.05.2.13v1.31c0,.18.16.3.38.3h6.87c.22,0,.38-.13.38-.3v-1.31c0-.07.09-.13.2-.13h1.77c.22,0,.38-.13.38-.3v-1.79c0-.18-.16-.3-.38-.3h-2.28c-.22,0-.38.13-.38.3v1.31c0,.07-.09.13-.2.13h-5.64c-.12,0-.2-.05-.2-.13v-11c0-.07.09-.13.2-.13h5.64c.12,0,.2.05.2.13v1.31c0,.18.16.3.38.3h2.28c.22,0,.38-.13.38-.3v-1.79c0-.18-.16-.3-.38-.3Z"/><path class="cls-2" d="M244.61,248.8h-1.77c-.12,0-.2-.05-.2-.13v-1.31c0-.18-.16-.3-.38-.3h-4.13c-.12,0-.2-.05-.2-.13v-3.05c0-.18-.16-.3-.38-.3h-2.16c-.22,0-.38.13-.38.3v13.71c0,.18.16.3.38.3h2.16c.22,0,.38-.13.38-.3v-8.27c0-.07.09-.13.2-.13h3.74c.12,0,.2.05.2.13v8.27c0,.18.16.3.38.3h2.16c.22,0,.38-.13.38-.3v-8.49c0-.18-.16-.3-.38-.3Z"/><path class="cls-2" d="M258.28,248.8h-1.77c-.12,0-.2-.05-.2-.13v-1.31c0-.18-.16-.3-.38-.3h-4.52c-.22,0-.38.13-.38.3v1.31c0,.18.16.3.38.3h4.13c.12,0,.2.05.2.13v1.41c0,.07-.09.13-.2.13h-4.13c-.22,0-.38.13-.38.3v1.26c0,.07-.09.13-.2.13h-1.77c-.22,0-.38.13-.38.3v3.17c0,.18.16.3.38.3h1.77c.12,0,.2.05.2.13v1.36c0,.18.16.3.38.3h6.87c.22,0,.38-.13.38-.3v-8.49c0-.18-.16-.3-.38-.3ZM251.8,252.6h3.74c.12,0,.2.05.2.13v2.97c0,.07-.09.13-.2.13h-3.74c-.12,0-.2-.05-.2-.13v-2.97c0-.07.09-.13.2-.13Z"/><path class="cls-2" d="M272.41,248.8h-1.77c-.12,0-.2-.05-.2-.13v-1.31c0-.18-.16-.3-.38-.3h-6.87c-.22,0-.38.13-.38.3v10.23c0,.18.16.3.38.3h2.16c.22,0,.38-.13.38-.3v-8.27c0-.07.09-.13.2-.13h3.74c.12,0,.2.05.2.13v8.27c0,.18.16.3.38.3h2.16c.22,0,.38-.13.38-.3v-8.49c0-.18-.16-.3-.38-.3Z"/><path class="cls-2" d="M286.14,247.06h-6.87c-.22,0-.38.13-.38.3v1.31c0,.07-.09.13-.2.13h-1.77c-.22,0-.38.13-.38.3v5.01c0,.18.16.3.38.3l1.77-.05c.12,0,.2.05.2.13v1.26c0,.18.16.3.38.3h4.13c.12,0,.2.05.2.13v1.41c0,.07-.09.13-.2.13h-4.13c-.22,0-.38.13-.38.3v1.31c0,.18.16.3.38.3h4.52c.22,0,.38-.13.38-.3v-1.31c0-.07.09-.13.2-.13h1.77c.22,0,.38-.13.38-.3v-10.23c0-.18-.16-.3-.38-.3ZM283.61,249.37v4.48c0,.07-.09.13-.2.13h-3.74c-.12,0-.2-.05-.2-.13v-4.48c0-.07.09-.13.2-.13h3.74c.12,0,.2.05.2.13Z"/><path class="cls-2" d="M300.13,248.8h-1.77c-.12,0-.2-.05-.2-.13v-1.31c0-.18-.16-.3-.38-.3h-4.52c-.22,0-.38.13-.38.3v1.31c0,.07-.09.13-.2.13h-1.77c-.22,0-.38.13-.38.3v6.75c0,.18.16.3.38.3h1.77c.12,0,.2.05.2.13v1.31c0,.18.16.3.38.3h4.52c.22,0,.38-.13.38-.3v-1.31c0-.07.09-.13.2-.13h1.77c.22,0,.38-.13.38-.3v-1.24c0-.18-.16-.3-.38-.3h-2.16c-.22,0-.38.13-.38.3v1.02c0,.07-.09.13-.2.13h-3.74c-.12,0-.2-.05-.2-.13v-2.72c0-.07.09-.13.2-.13h6.48c.22,0,.38-.13.38-.3v-3.39c0-.18-.16-.3-.38-.3ZM297.59,249.27v1.68c0,.07-.09.13-.2.13h-3.74c-.12,0-.2-.05-.2-.13v-1.68c0-.07.09-.13.2-.13h3.74c.12,0,.2.05.2.13Z"/><path class="cls-2" d="M310.35,255.76h-1.77c-.12,0-.2-.05-.2-.13v-11.76c0-.18-.16-.3-.38-.3h-4.52c-.22,0-.38.13-.38.3v1.53c0,.18.16.3.38.3h1.77c.12,0,.2.05.2.13v11.76c0,.18.16.3.38.3h4.52c.22,0,.38-.13.38-.3v-1.53c0-.18-.16-.3-.38-.3Z"/><path class="cls-2" d="M323.61,248.8h-1.77c-.12,0-.2-.05-.2-.13v-1.31c0-.18-.16-.3-.38-.3h-4.52c-.22,0-.38.13-.38.3v1.31c0,.07-.09.13-.2.13h-1.77c-.22,0-.38.13-.38.3v6.75c0,.18.16.3.38.3h1.77c.12,0,.2.05.2.13v1.31c0,.18.16.3.38.3h4.52c.22,0,.38-.13.38-.3v-1.31c0-.07.09-.13.2-.13h1.77c.22,0,.38-.13.38-.3v-6.75c0-.18-.16-.3-.38-.3ZM321.07,249.32v6.32c0,.07-.09.13-.2.13h-3.74c-.12,0-.2-.05-.2-.13v-6.32c0-.07.09-.13.2-.13h3.74c.12,0,.2.05.2.13Z"/><path class="cls-2" d="M354.35,243.58h-1.65c-.12,0-.2-.05-.2-.13v-1.31c0-.18-.16-.3-.38-.3h-9.06c-.22,0-.38.13-.38.3v15.45c0,.18.16.3.38.3h9.06c.22,0,.38-.13.38-.3v-1.31c0-.07.09-.13.2-.13h1.65c.22,0,.38-.13.38-.3v-4.91c0-.18-.16-.3-.38-.3h-1.65c-.12,0-.2-.05-.2-.13v-1.29c0-.07.09-.13.2-.13h1.65c.22,0,.38-.13.38-.3v-4.91c0-.18-.16-.3-.38-.3ZM345.38,251.06c0-.07.09-.13.2-.13h6.14c.12,0,.2.05.2.13v4.58c0,.07-.09.13-.2.13h-6.14c-.12,0-.2-.05-.2-.13v-4.58ZM351.93,248.67c0,.07-.09.13-.2.13h-6.14c-.12,0-.2-.05-.2-.13v-4.58c0-.07.09-.13.2-.13h6.14c.12,0,.2.05.2.13v4.58Z"/><path class="cls-2" d="M368.58,248.8h-1.77c-.12,0-.2-.05-.2-.13v-1.31c0-.18-.16-.3-.38-.3h-4.52c-.22,0-.38.13-.38.3v1.31c0,.07-.09.13-.2.13h-1.77c-.22,0-.38.13-.38.3v6.75c0,.18.16.3.38.3h1.77c.12,0,.2.05.2.13v1.31c0,.18.16.3.38.3h4.52c.22,0,.38-.13.38-.3v-1.31c0-.07.09-.13.2-.13h1.77c.22,0,.38-.13.38-.3v-6.75c0-.18-.16-.3-.38-.3ZM366.04,249.32v6.32c0,.07-.09.13-.2.13h-3.74c-.12,0-.2-.05-.2-.13v-6.32c0-.07.09-.13.2-.13h3.74c.12,0,.2.05.2.13Z"/><path class="cls-2" d="M377.17,249.19h4.01c.22,0,.38-.13.38-.3v-1.53c0-.18-.16-.3-.38-.3h-4.01c-.12,0-.2-.05-.2-.13v-3.05c0-.18-.16-.3-.38-.3h-2.16c-.22,0-.38.13-.38.3v3.05c0,.07-.09.13-.2.13h-1.77c-.22,0-.38.13-.38.3v1.53c0,.18.16.3.38.3h1.77c.12,0,.2.05.2.13v6.53c0,.18.16.3.38.3h1.77c.12,0,.2.05.2.13v1.31c0,.18.16.3.38.3h4.4c.22,0,.38-.13.38-.3v-1.53c0-.18-.16-.3-.38-.3h-4.01c-.12,0-.2-.05-.2-.13v-6.32c0-.07.09-.13.2-.13Z"/><path class="cls-2" d="M337.27,247.06h-6.87c-.22,0-.38.13-.38.3v1.31c0,.07-.09.13-.2.13h-1.77c-.22,0-.38.13-.38.3v5.01c0,.18.16.3.38.3l1.77-.05c.12,0,.2.05.2.13v1.26c0,.18.16.3.38.3h4.13c.12,0,.2.05.2.13v1.41c0,.07-.09.13-.2.13h-4.13c-.22,0-.38.13-.38.3v1.31c0,.18.16.3.38.3h4.52c.22,0,.38-.13.38-.3v-1.31c0-.07.09-.13.2-.13h1.77c.22,0,.38-.13.38-.3v-10.23c0-.18-.16-.3-.38-.3ZM334.73,249.37v4.48c0,.07-.09.13-.2.13h-3.74c-.12,0-.2-.05-.2-.13v-4.48c0-.07.09-.13.2-.13h3.74c.12,0,.2.05.2.13Z"/><rect class="cls-2" x="270.54" y="209.69" width="4.95" height="4.95" rx=".36" ry=".36"/><rect class="cls-2" x="325.01" y="209.69" width="4.95" height="4.95" rx=".36" ry=".36"/><rect class="cls-2" x="249.12" y="180.29" width="4.33" height="4.33" rx=".36" ry=".36"/><rect class="cls-2" x="253.45" y="189.88" width="4.33" height="4.33" rx=".36" ry=".36"/><path class="cls-2" d="M346.55,176.31v3.63c0,.19-.16.35-.36.35h-5.98c-.2,0-.36.17-.36.36v4.91h2c.19,0,.35.16.35.36v3.62c0,.2-.16.36-.35.36h-6.6c-.2,0-.36.16-.36.36v4.24c0,.2-.16.36-.36.36h-4.24c-.19,0-.35.16-.35.36v4.24c0,.2-.17.36-.36.36h-9.19c-.2,0-.36.16-.36.36v4.24c0,.19.16.35.36.35h4.24c.2,0,.36.17.36.36v4.24c0,.2-.16.36-.36.36h-4.24c-.2,0-.36.16-.36.36v4.24c0,.2-.16.36-.36.36h-4.24c-.2,0-.36.16-.36.36v9.19c0,.2-.16.36-.36.36h-4.24c-.2,0-.36-.16-.36-.36v-4.24c0-.2-.16-.36-.36-.36h-19.1c-.2,0-.36.16-.36.36v4.24c0,.2-.16.36-.36.36h-4.24c-.2,0-.36-.16-.36-.36v-9.19c0-.2-.16-.36-.36-.36h-4.24c-.19,0-.36-.16-.36-.36v-4.24c0-.2-.16-.36-.35-.36h-4.24c-.2,0-.36-.16-.36-.36v-4.24c0-.19.16-.36.36-.36h4.24c.19,0,.35-.16.35-.35v-4.24c0-.2-.16-.36-.35-.36h-9.19c-.2,0-.36-.16-.36-.36v-4.24c0-.2-.16-.36-.36-.36h-4.24c-.2,0-.36-.16-.36-.36v-4.24c0-.2-.16-.36-.36-.36h-7.09c-.2,0-.36-.16-.36-.36v-3.62c0-.2.16-.36.36-.36h2.49v-4.91c0-.19-.16-.36-.36-.36h-6.47c-.2,0-.36-.16-.36-.35v-3.63c0-.2.16-.36.36-.36h6.47c.2,0,.36-.16.36-.36v-15.07c0-.2.16-.36.36-.36h4.24c.2,0,.36-.16.36-.36v-4.24c0-.19.16-.36.36-.36h4.24c.2,0,.36-.16.36-.35v-9.2c0-.19.16-.35.36-.35h4.24c.2,0,.36-.16.36-.36v-4.24c0-.2.16-.36.36-.36h4.24c.19,0,.35.16.35.36v4.24c0,.2.17.36.36.36h4.24c.2,0,.36.16.36.35v4.24c0,.2.16.36.36.36h28.99c.2,0,.36-.16.36-.36v-4.24c0-.19.16-.35.36-.35h4.24c.2,0,.36-.16.36-.36v-4.24c0-.2.16-.36.36-.36h4.24c.2,0,.36.16.36.36v4.24c0,.2.16.36.36.36h4.24c.19,0,.36.16.36.35v9.2c0,.19.16.35.35.35h4.24c.2,0,.36.17.36.36v4.24c0,.2.16.36.36.36h4.24c.2,0,.36.16.36.36v15.07c0,.2.16.36.36.36h5.98c.2,0,.36.16.36.36Z"/><rect class="cls-2" x="346.55" y="180.29" width="4.33" height="4.33" rx=".36" ry=".36"/><rect class="cls-2" x="342.21" y="189.88" width="4.33" height="4.33" rx=".36" ry=".36"/><rect class="cls-2" x="290.34" y="224.55" width="4.95" height="4.95" rx=".36" ry=".36"/><rect class="cls-2" x="305.2" y="224.55" width="4.95" height="4.95" rx=".36" ry=".36"/></svg>