<?xml version="1.0" encoding="UTF-8"?><svg id="_レイヤー_1" xmlns="http://www.w3.org/2000/svg" viewBox="0 0 942.38 132.06"><defs><style>.cls-1{fill:#7caa4a;}</style></defs><path class="cls-1" d="M254.5,46.33h-7.75c-.52,0-.89-.24-.89-.56v-5.73c0-.77-.7-1.33-1.66-1.33h-30.06c-.96,0-1.66.56-1.66,1.33v5.73c0,.32-.37.56-.89.56h-7.97c-.96,0-1.66.56-1.66,1.32v52.37c0,.77.7,1.32,1.66,1.32h7.97c.52,0,.89.24.89.56v5.73c0,.77.7,1.32,1.66,1.32h30.06c.96,0,1.66-.56,1.66-1.32v-5.73c0-.32.37-.56.89-.56h7.75c.96,0,1.66-.56,1.66-1.32v-7.85c0-.77-.7-1.33-1.66-1.33h-9.97c-.96,0-1.66.56-1.66,1.33v5.73c0,.32-.38.56-.89.56h-24.66c-.52,0-.89-.23-.89-.56v-48.14c0-.32.37-.56.89-.56h24.66c.52,0,.89.24.89.56v5.73c0,.77.7,1.33,1.66,1.33h9.97c.96,0,1.66-.56,1.66-1.33v-7.85c0-.77-.7-1.32-1.66-1.32Z"/><path class="cls-1" d="M316.42,69.17h-7.75c-.52,0-.89-.24-.89-.56v-5.73c0-.77-.7-1.32-1.66-1.32h-18.05c-.52,0-.89-.24-.89-.56v-13.35c0-.77-.7-1.32-1.66-1.32h-9.45c-.96,0-1.66.56-1.66,1.32v59.98c0,.77.7,1.32,1.66,1.32h9.45c.96,0,1.66-.56,1.66-1.32v-36.19c0-.32.37-.56.89-.56h16.36c.52,0,.89.24.89.56v36.19c0,.77.7,1.32,1.66,1.32h9.45c.96,0,1.66-.56,1.66-1.32v-37.14c0-.77-.7-1.32-1.66-1.32Z"/><path class="cls-1" d="M376.24,69.17h-7.75c-.52,0-.89-.24-.89-.56v-5.73c0-.77-.7-1.32-1.66-1.32h-19.75c-.96,0-1.66.56-1.66,1.32v5.72c0,.77.7,1.33,1.66,1.33h18.05c.52,0,.89.24.89.56v6.18c0,.32-.37.56-.89.56h-18.05c-.96,0-1.66.56-1.66,1.32v5.51c0,.32-.37.56-.89.56h-7.75c-.96,0-1.66.56-1.66,1.33v13.85c0,.77.7,1.32,1.66,1.32h7.75c.52,0,.89.24.89.56v5.95c0,.77.7,1.32,1.66,1.32h30.05c.96,0,1.66-.56,1.66-1.32v-37.14c0-.77-.7-1.32-1.66-1.32ZM346.99,99.38v-13.01c0-.32.37-.56.89-.56h16.36c.52,0,.89.24.89.56v13.01c0,.32-.37.56-.89.56h-16.36c-.52,0-.89-.24-.89-.56Z"/><path class="cls-1" d="M438.03,69.17h-7.75c-.52,0-.89-.24-.89-.56v-5.73c0-.77-.7-1.32-1.66-1.32h-30.06c-.96,0-1.66.56-1.66,1.32v44.75c0,.77.7,1.32,1.66,1.32h9.45c.96,0,1.66-.56,1.66-1.32v-36.19c0-.32.38-.56.89-.56h16.35c.52,0,.89.24.89.56v36.19c0,.77.7,1.32,1.66,1.32h9.45c.96,0,1.66-.56,1.66-1.32v-37.14c0-.77-.7-1.32-1.66-1.32Z"/><path class="cls-1" d="M498.11,61.56h-30.06c-.96,0-1.66.56-1.66,1.32v5.73c0,.32-.37.56-.89.56h-7.75c-.96,0-1.66.56-1.66,1.32v21.91c0,.77.7,1.33,1.67,1.33l7.74-.22c.52,0,.89.23.89.56v5.51c0,.77.7,1.33,1.66,1.33h18.05c.52,0,.89.23.89.56v6.18c0,.32-.37.56-.89.56h-18.05c-.96,0-1.66.56-1.66,1.33v5.72c0,.77.7,1.33,1.66,1.33h19.75c.96,0,1.66-.56,1.66-1.33v-5.73c0-.32.37-.56.89-.56h7.75c.96,0,1.66-.56,1.66-1.32v-44.75c0-.77-.7-1.32-1.66-1.32ZM487,71.66v19.59c0,.32-.37.56-.89.56h-16.35c-.52,0-.89-.24-.89-.56v-19.59c0-.32.38-.56.89-.56h16.35c.52,0,.89.24.89.56Z"/><path class="cls-1" d="M559.28,69.17h-7.75c-.52,0-.89-.24-.89-.56v-5.73c0-.77-.7-1.32-1.66-1.32h-19.75c-.96,0-1.66.56-1.66,1.32v5.73c0,.32-.38.56-.89.56h-7.75c-.96,0-1.66.56-1.66,1.32v29.52c0,.77.7,1.32,1.66,1.32h7.75c.52,0,.89.24.89.56v5.73c0,.77.7,1.32,1.66,1.32h19.75c.96,0,1.66-.56,1.66-1.32v-5.73c0-.32.37-.56.89-.56h7.75c.96,0,1.66-.56,1.66-1.32v-5.42c0-.77-.7-1.33-1.66-1.33h-9.45c-.96,0-1.66.56-1.66,1.33v4.47c0,.32-.37.56-.89.56h-16.35c-.52,0-.89-.24-.89-.56v-11.88c0-.32.37-.56.89-.56h28.36c.96,0,1.66-.56,1.66-1.32v-14.81c0-.77-.7-1.32-1.66-1.32ZM530.92,79.13c-.52,0-.89-.23-.89-.56v-7.35c0-.32.37-.56.89-.56h16.35c.52,0,.89.24.89.56v7.35c0,.32-.37.56-.89.56h-16.35Z"/><path class="cls-1" d="M603.98,99.64h-7.75c-.52,0-.89-.24-.89-.56v-51.43c0-.77-.7-1.32-1.66-1.32h-19.75c-.96,0-1.66.56-1.66,1.32v6.67c0,.77.7,1.33,1.66,1.33h7.75c.52,0,.89.24.89.56v51.43c0,.77.7,1.32,1.66,1.32h19.75c.96,0,1.66-.56,1.66-1.32v-6.67c0-.77-.7-1.32-1.66-1.32Z"/><path class="cls-1" d="M662.01,69.17h-7.75c-.52,0-.89-.24-.89-.56v-5.73c0-.77-.7-1.32-1.66-1.32h-19.75c-.96,0-1.66.56-1.66,1.32v5.73c0,.32-.37.56-.89.56h-7.75c-.96,0-1.66.56-1.66,1.32v29.52c0,.77.7,1.32,1.66,1.32h7.75c.52,0,.89.24.89.56v5.73c0,.77.7,1.32,1.66,1.32h19.75c.96,0,1.66-.56,1.66-1.32v-5.73c0-.32.38-.56.89-.56h7.75c.96,0,1.66-.56,1.66-1.32v-29.52c0-.77-.7-1.32-1.66-1.32ZM650.91,71.44v27.64c0,.32-.37.56-.89.56h-16.36c-.52,0-.89-.24-.89-.56v-27.64c0-.32.37-.56.89-.56h16.36c.52,0,.89.24.89.56Z"/><path class="cls-1" d="M796.47,46.33h-7.23c-.52,0-.89-.24-.89-.56v-5.73c0-.77-.7-1.33-1.66-1.33h-39.62c-.96,0-1.66.56-1.66,1.33v67.6c0,.77.7,1.32,1.66,1.32h39.62c.96,0,1.66-.56,1.66-1.32v-5.73c0-.32.38-.56.89-.56h7.23c.96,0,1.66-.56,1.66-1.32v-21.47c0-.77-.7-1.32-1.66-1.32h-7.23c-.52,0-.89-.24-.89-.56v-5.66c0-.32.38-.56.89-.56h7.23c.96,0,1.66-.56,1.66-1.33v-21.47c0-.77-.7-1.32-1.66-1.32ZM757.22,68.61v-20.02c0-.32.37-.56.89-.56h26.87c.52,0,.89.24.89.56v20.02c0,.32-.37.56-.89.56h-26.87c-.52,0-.89-.24-.89-.56ZM757.22,79.06c0-.32.37-.56.89-.56h26.87c.52,0,.89.23.89.56v20.02c0,.32-.37.56-.89.56h-26.87c-.52,0-.89-.24-.89-.56v-20.02Z"/><path class="cls-1" d="M858.7,69.17h-7.75c-.52,0-.89-.24-.89-.56v-5.73c0-.77-.7-1.32-1.66-1.32h-19.75c-.96,0-1.66.56-1.66,1.32v5.73c0,.32-.38.56-.89.56h-7.75c-.96,0-1.66.56-1.66,1.32v29.52c0,.77.7,1.32,1.66,1.32h7.75c.52,0,.89.24.89.56v5.73c0,.77.7,1.32,1.66,1.32h19.75c.96,0,1.66-.56,1.66-1.32v-5.73c0-.32.37-.56.89-.56h7.75c.96,0,1.66-.56,1.66-1.32v-29.52c0-.77-.7-1.32-1.66-1.32ZM847.59,71.44v27.64c0,.32-.37.56-.89.56h-16.35c-.52,0-.89-.24-.89-.56v-27.64c0-.32.37-.56.89-.56h16.35c.52,0,.89.24.89.56Z"/><path class="cls-1" d="M896.29,70.88h17.53c.96,0,1.66-.56,1.66-1.32v-6.67c0-.77-.7-1.32-1.66-1.32h-17.53c-.52,0-.89-.24-.89-.56v-13.35c0-.77-.7-1.32-1.66-1.32h-9.45c-.96,0-1.66.56-1.66,1.32v13.35c0,.32-.37.56-.89.56h-7.75c-.96,0-1.66.56-1.66,1.32v6.67c0,.77.7,1.32,1.66,1.32h7.75c.52,0,.89.24.89.56v28.58c0,.77.7,1.32,1.66,1.32h7.75c.52,0,.89.24.89.56v5.73c0,.77.7,1.32,1.66,1.32h19.23c.96,0,1.66-.56,1.66-1.32v-6.67c0-.77-.7-1.32-1.66-1.32h-17.53c-.52,0-.89-.24-.89-.56v-27.64c0-.32.37-.56.89-.56Z"/><path class="cls-1" d="M721.75,61.56h-30.06c-.96,0-1.66.56-1.66,1.32v5.73c0,.32-.37.56-.89.56h-7.75c-.96,0-1.66.56-1.66,1.32v21.91c0,.77.7,1.33,1.67,1.33l7.74-.22c.52,0,.89.23.89.56v5.51c0,.77.7,1.33,1.66,1.33h18.05c.52,0,.89.23.89.56v6.18c0,.32-.37.56-.89.56h-18.05c-.96,0-1.66.56-1.66,1.33v5.72c0,.77.7,1.33,1.66,1.33h19.75c.96,0,1.66-.56,1.66-1.33v-5.73c0-.32.37-.56.89-.56h7.75c.96,0,1.66-.56,1.66-1.32v-44.75c0-.77-.7-1.32-1.66-1.32ZM710.65,71.66v19.59c0,.32-.37.56-.89.56h-16.35c-.52,0-.89-.24-.89-.56v-19.59c0-.32.38-.56.89-.56h16.35c.52,0,.89.24.89.56Z"/><rect class="cls-1" x="56.82" y="100.62" width="6.92" height="6.92" rx=".5" ry=".5"/><rect class="cls-1" x="132.92" y="100.62" width="6.92" height="6.92" rx=".5" ry=".5"/><rect class="cls-1" x="26.9" y="59.54" width="6.05" height="6.05" rx=".5" ry=".5"/><rect class="cls-1" x="32.96" y="72.95" width="6.05" height="6.05" rx=".5" ry=".5"/><path class="cls-1" d="M163.01,53.99v5.06c0,.28-.22.5-.5.5h-8.34c-.28,0-.5.22-.5.49v6.86h2.79c.27,0,.5.22.5.5v5.06c0,.27-.23.49-.5.49h-9.21c-.28,0-.5.22-.5.5v5.92c0,.28-.22.5-.49.5h-5.93c-.27,0-.5.22-.5.5v5.92c0,.28-.22.5-.49.5h-12.85c-.27,0-.49.22-.49.49v5.93c0,.27.22.5.49.5h5.93c.27,0,.5.22.5.49v5.93c0,.27-.23.49-.5.49h-5.93c-.27,0-.49.23-.49.5v5.93c0,.27-.22.49-.5.49h-5.92c-.28,0-.5.22-.5.5v12.84c0,.28-.22.5-.5.5h-5.92c-.27,0-.5-.22-.5-.5v-5.92c0-.28-.22-.5-.49-.5h-26.68c-.28,0-.5.22-.5.5v5.92c0,.28-.22.5-.49.5h-5.93c-.27,0-.5-.22-.5-.5v-12.84c0-.28-.22-.5-.49-.5h-5.93c-.27,0-.49-.22-.49-.49v-5.93c0-.27-.23-.5-.5-.5h-5.93c-.27,0-.49-.22-.49-.49v-5.93c0-.27.22-.49.49-.49h5.93c.27,0,.5-.23.5-.5v-5.93c0-.27-.23-.49-.5-.49h-12.84c-.28,0-.5-.22-.5-.5v-5.92c0-.28-.22-.5-.5-.5h-5.92c-.28,0-.5-.22-.5-.5v-5.92c0-.28-.22-.5-.49-.5h-9.91c-.27,0-.49-.22-.49-.49v-5.06c0-.28.22-.5.49-.5h3.48v-6.86c0-.27-.22-.49-.49-.49h-9.04c-.27,0-.5-.22-.5-.5v-5.06c0-.27.23-.49.5-.49h9.04c.27,0,.49-.23.49-.5v-21.06c0-.27.23-.49.5-.49h5.93c.27,0,.49-.23.49-.5v-5.93c0-.27.22-.49.5-.49h5.92c.28,0,.5-.22.5-.5v-12.84c0-.28.22-.5.5-.5h5.92c.28,0,.5-.22.5-.49v-5.93c0-.27.22-.5.49-.5h5.93c.27,0,.5.23.5.5v5.93c0,.27.22.49.49.49h5.93c.27,0,.49.22.49.5v5.92c0,.28.23.5.5.5h40.51c.28,0,.5-.22.5-.5v-5.92c0-.28.22-.5.5-.5h5.92c.28,0,.5-.22.5-.49v-5.93c0-.27.22-.5.49-.5h5.93c.27,0,.5.23.5.5v5.93c0,.27.22.49.49.49h5.93c.27,0,.49.22.49.5v12.84c0,.28.23.5.5.5h5.93c.27,0,.49.22.49.49v5.93c0,.27.22.5.5.5h5.92c.28,0,.5.22.5.49v21.06c0,.27.22.5.5.5h8.34c.28,0,.5.22.5.49Z"/><rect class="cls-1" x="163.01" y="59.54" width="6.05" height="6.05" rx=".5" ry=".5"/><rect class="cls-1" x="156.96" y="72.95" width="6.05" height="6.05" rx=".5" ry=".5"/><rect class="cls-1" x="84.49" y="121.37" width="6.92" height="6.92" rx=".5" ry=".5"/><rect class="cls-1" x="105.25" y="121.37" width="6.92" height="6.92" rx=".5" ry=".5"/></svg>